<?xml version="1.0" encoding="UTF-8"?>
<!DOCTYPE svg PUBLIC "-//W3C//DTD SVG 1.1//EN" "http://www.w3.org/Graphics/SVG/1.1/DTD/svg11.dtd">
<!-- Creator: CorelDRAW 2020 (64 Bit) -->
<svg xmlns="http://www.w3.org/2000/svg" xml:space="preserve" width="135px" height="135px" version="1.1" style="shape-rendering:geometricPrecision; text-rendering:geometricPrecision; image-rendering:optimizeQuality; fill-rule:evenodd; clip-rule:evenodd"
viewBox="0 0 133.34 133.34"
 xmlns:xlink="http://www.w3.org/1999/xlink"
 xmlns:xodm="http://www.corel.com/coreldraw/odm/2003">
 <defs>
  <style type="text/css">
   <![CDATA[
    .fil0 {fill:url(#id0)}
   ]]>
  </style>
  <linearGradient id="id0" gradientUnits="userSpaceOnUse" x1="20.42" y1="-0.74" x2="115.57" y2="136.59">
   <stop offset="0" style="stop-opacity:1; stop-color:aqua"/>
   <stop offset="0.45098" style="stop-opacity:1; stop-color:#FFFF66"/>
   <stop offset="1" style="stop-opacity:1; stop-color:#FF0066"/>
  </linearGradient>
 </defs>
 <g id="Camada_x0020_1">
  <metadata id="CorelCorpID_0Corel-Layer"/>
  <path class="fil0" d="M103.19 69.18l4.04 -0.01 0 4.01 -4.01 0.02 -0.03 -4.02zm-36.52 -69.18c18.41,0 35.08,7.46 47.14,19.53 12.06,12.06 19.53,28.73 19.53,47.14 0,18.41 -7.47,35.08 -19.53,47.14 -12.06,12.06 -28.73,19.53 -47.14,19.53 -18.41,0 -35.08,-7.47 -47.14,-19.53 -12.07,-12.06 -19.53,-28.73 -19.53,-47.14 0,-18.41 7.46,-35.08 19.53,-47.14 12.06,-12.07 28.73,-19.53 47.14,-19.53zm44.15 22.51c-11.3,-11.29 -26.91,-18.28 -44.15,-18.28 -17.24,0 -32.86,6.99 -44.16,18.28 -11.29,11.3 -18.28,26.92 -18.28,44.16 0,17.24 6.99,32.85 18.28,44.15 11.3,11.3 26.92,18.29 44.16,18.29 17.24,0 32.85,-6.99 44.15,-18.29 11.3,-11.3 18.29,-26.91 18.29,-44.15 0,-17.24 -6.99,-32.86 -18.29,-44.16zm-65.93 9.87l-1.89 0 -10.59 0c-1.47,-5.63 -10.22,-4.67 -10.16,1.49 0.04,4.59 5.26,6.5 8.2,4.23 1.23,-0.95 1.25,-1.29 2.02,-2.82l19.58 -0.01 -4.45 2.26c-7.28,4.38 -12.78,10 -16.32,18.04 -2.54,5.75 -1.78,5.82 -3.1,10.69l-3.62 0.02 0.03 9.83 9.83 -0.02 -0.01 -9.83 -3.24 0.01c0.09,-3.02 2.22,-8.52 3.42,-10.92 2.72,-5.45 5.55,-8.48 9.63,-12 3.65,-3.14 9.72,-6.12 14.58,-7.14l0.06 5.21 14.44 -0.02c0.24,-1.1 0.04,-4.26 0.05,-5.61 2.48,-0.1 9.35,2.71 11.28,3.81 6.33,3.62 11.77,8.66 15.03,15.26 1.09,2.21 3.76,8.56 3.63,11.41l-3.03 0 0.05 9.85 9.82 -0.03 -0.01 -9.83 -3.78 0.02c-0.74,-2.1 -0.32,-4.24 -3.07,-10.57 -2.62,-6.06 -7.05,-11.53 -12.19,-15.4 -2.67,-2.02 -5.18,-3.36 -8.68,-5.02l18.49 -0.01c0.74,1.71 1.42,2.83 3.26,3.45 1.4,0.48 2.94,0.41 4.26,-0.32 0.6,-0.34 0.84,-0.4 0.89,-0.73 1.14,-0.73 1.78,-2.22 1.79,-4.04 -0.07,-5.77 -8.61,-6.98 -10.16,-1.25l-27.58 -0.01 -0.02 -5.59 -14.53 0.03 0.02 5.55 -13.93 0.01zm10.07 75.96l22.91 -0.03 0.03 7.92 -22.92 0 -0.02 -7.89zm2.99 -4.75l16.94 -0.02 0.02 1.84 -16.97 0 0.01 -1.82zm7.71 -29.54c3.19,-1.1 4.88,3.77 1.64,4.95 -3.11,1.13 -5.23,-3.71 -1.64,-4.95zm2.22 -25.62l0.6 1.08c1.99,4.1 15.62,31.91 15.77,32.52 -2.45,1.44 -6.07,5.28 -7.58,7.7 -1.63,2.59 -3.57,7.36 -4.18,10.94l-12.13 -0.02c-0.62,-3.56 -2.52,-8.31 -4.19,-10.96 -2.13,-3.39 -4.55,-5.32 -7.5,-7.66 0.03,-0.52 6.9,-14.6 8.07,-16.84 1.87,-3.6 4.23,-8.66 6.12,-12.55 0.32,-0.66 1.59,-3.62 2.12,-4.1l-0.02 22.7c-2.36,0.49 -4.45,3.07 -4.01,6.1 0.92,6.27 10.14,6.17 10.96,-0.07 0.39,-3.01 -1.75,-5.65 -4.05,-6.02l0.02 -22.82zm-4.05 -4.31c-0.45,0.59 -1.99,3.95 -2.45,4.89l-7.09 14.56c-1.65,3.31 -3.11,6.58 -4.72,9.74 -0.83,1.62 -1.54,3.21 -2.36,4.82 -0.61,1.2 -1.97,3.7 -2.32,4.89 1.19,0.6 4.54,3.19 5.35,4.09 0.85,0.96 1.54,1.41 2.69,2.98 1.67,2.28 4.18,7.85 4.42,10.58l-2.31 0 -0.01 4.75 -2.96 0.01 -0.02 13.7 28.74 -0.03 0 -13.68 -2.97 -0.04 0 -4.71 -2.34 0c0.51,-3.42 2.82,-8.34 4.49,-10.62 1.63,-2.21 1.95,-2.13 3.21,-3.41 0.27,-0.27 0.22,-0.26 0.47,-0.48l4.27 -3.19c-0.11,-0.65 -1.9,-4.08 -2.33,-4.97 -1.82,-3.8 -16.05,-32.6 -16.46,-33.91l-5.3 0.03zm-36.35 25.08l4.03 -0.03 0.01 4.02 -4.02 0 -0.02 -3.99zm34.26 -39.48l8.7 -0.01 0.02 8.78c-1.33,0.06 -7.85,0.18 -8.72,-0.05l0 -8.72zm43.36 1.95c1.4,-0.56 2.66,0.41 2.98,1.38 0.42,1.27 -0.33,2.59 -1.29,2.93 -2.98,1.08 -4.55,-3.19 -1.69,-4.31zm-78.46 0.01c2.98,-1.17 4.39,3.41 1.59,4.32 -2.98,0.97 -4.33,-3.25 -1.59,-4.32z"/>
 </g>
</svg>
