<?xml version="1.0" encoding="UTF-8"?>
<!DOCTYPE svg PUBLIC "-//W3C//DTD SVG 1.1//EN" "http://www.w3.org/Graphics/SVG/1.1/DTD/svg11.dtd">
<!-- Creator: CorelDRAW 2020 (64 Bit) -->
<svg xmlns="http://www.w3.org/2000/svg" xml:space="preserve" width="172px" height="135px" version="1.1" style="shape-rendering:geometricPrecision; text-rendering:geometricPrecision; image-rendering:optimizeQuality; fill-rule:evenodd; clip-rule:evenodd"
viewBox="0 0 39.56 31.01"
 xmlns:xlink="http://www.w3.org/1999/xlink"
 xmlns:xodm="http://www.corel.com/coreldraw/odm/2003">
 <defs>
  <style type="text/css">
   <![CDATA[
    .fil0 {fill:url(#id0)}
   ]]>
  </style>
  <linearGradient id="id0" gradientUnits="userSpaceOnUse" x1="-0.15" y1="-1.34" x2="36.74" y2="30.39">
   <stop offset="0" style="stop-opacity:1; stop-color:blue"/>
   <stop offset="0.529412" style="stop-opacity:1; stop-color:#66FFCC"/>
   <stop offset="1" style="stop-opacity:1; stop-color:#6699FF"/>
  </linearGradient>
 </defs>
 <g id="Camada_x0020_1">
  <metadata id="CorelCorpID_0Corel-Layer"/>
  <path class="fil0" d="M19.4 23.43c0.83,-0.24 1.49,0.26 1.68,0.88 0.24,0.76 -0.32,1.47 -0.9,1.63 -1.71,0.5 -2.52,-2.01 -0.78,-2.51zm13.15 -11.81l2.15 0.02 0 -0.87 -2.14 0 -0.01 0.85zm-28.62 5.1c0.33,1.77 3.12,1.41 2.82,-0.53 -0.29,-1.83 -3.17,-1.39 -2.82,0.53zm6.82 1.78c0.44,0.05 2.12,-0.17 2.79,-0.23 1.27,-0.1 0.02,-0.75 0.06,-1.89 0.04,-1.1 0.61,-0.63 0.44,-1.99 -0.51,-0.05 -1.45,0.1 -1.99,0.16 -1.41,0.13 -1.35,-0.01 -1.35,0.68 0,0.86 -0.08,2.5 0.05,3.27zm-3.93 -3.94c-0.23,0.69 0.41,0.91 0.46,1.77 0.07,1.32 -1.32,1.83 0.16,1.95 0.58,0.05 2.32,0.33 2.7,0.19 0.1,-0.39 0.1,-3.41 -0.02,-3.75 -0.33,-0.14 -2.18,-0.25 -2.73,-0.32 -0.3,-0.03 -0.48,-0.11 -0.57,0.16zm9.78 0.95c0.11,-0.36 0.47,-1.01 0.65,-1.39l2.68 -5.53c0.38,-0.8 -0.44,-1.07 -0.79,-0.71 -0.15,0.16 -1.17,2.36 -1.36,2.77l-1.99 4.12c-0.28,0.58 -0.63,-0.06 -1.34,0.76 -0.83,0.97 -0.06,2.41 1.19,2.34 1.15,-0.06 1.78,-1.45 0.96,-2.36zm-10.34 -0.78c0.26,-1.24 0.76,-0.88 3.01,-0.66 2.13,0.21 0.17,0.21 2.31,0.01 1.8,-0.18 2.99,-0.61 3.01,0.64 0.23,-0.06 0.35,-0.14 0.57,-0.18l0.52 -0.12c-0.09,-1.77 -1.4,-3.18 -3.09,-3.32 -0.18,0.26 -0.07,0.29 -0.33,0.54 -0.92,0.9 -3.65,0.83 -3.92,-0.55 -1.77,0.17 -3.06,1.56 -3.14,3.41 0.52,0.01 0.66,0.08 1.06,0.23zm3.61 -9.91c-3.71,0.92 -1.86,7.43 1.17,6.48 1.23,-0.39 2.1,-2.15 2.05,-3.87 -0.05,-1.57 -1.49,-3.03 -3.22,-2.61zm14.33 0.71l11.16 -0.01 -0.01 6.76 -11.13 0.01 -0.02 -6.76zm4.59 7.65l-1.71 2.5c-0.29,0.42 -0.58,0.81 -0.86,1.24 -0.24,0.35 -0.86,0.99 -0.29,1.38 0.6,0.4 0.96,-0.37 1.18,-0.69 0.32,-0.47 0.58,-0.83 0.9,-1.27 0.3,-0.43 0.57,-0.82 0.86,-1.24l0.89 -1.27c0.53,0.62 1.98,2.82 2.6,3.67 0.25,0.34 0.58,1.12 1.17,0.85 0.83,-0.38 -0.44,-1.8 -1.02,-2.62 -0.32,-0.46 -1.6,-2.2 -1.76,-2.55 0.82,-0.02 4.55,0.1 4.99,-0.09 0.67,-0.3 0.5,-1.21 0.5,-2.06l0 -5.09c0,-1.02 -0.23,-1.31 -1.27,-1.31l-10.24 0c-1.78,0 -1.42,0.68 -1.42,3.75 0,0.86 0,1.72 0,2.58 0,3.03 -0.03,2.05 5.48,2.22zm-27.11 -11.58l36.21 0.01 -0.01 19.93 -36.21 -0.01 0.01 -19.93zm14.16 24.96c-0.08,1.73 -0.57,2.45 -1.5,3.23 -1.77,1.48 1.18,1.17 2.46,1.17 1.58,0 3.16,0 4.74,0 1.07,0 3.87,0.22 4.54,-0.27 -0.09,-1.09 -1.96,-0.89 -2.13,-4.11 0.49,-0.11 10.17,-0.03 11.56,-0.03 0.85,0 3.05,0.19 3.59,-0.27 0.43,-0.35 0.46,-0.71 0.46,-1.42l0 -23.26c0.01,-2.01 -1.18,-1.56 -4.32,-1.56l-31.06 0c-0.82,0 -3.11,-0.15 -3.66,0.2 -0.46,0.29 -0.52,0.65 -0.52,1.36l0 23.33c-0.01,2.07 1.38,1.62 4.18,1.62l7.73 0c1.25,0 2.71,-0.07 3.93,0.01z"/>
 </g>
</svg>
